<?xml version="1.0" encoding="utf-8"?>
<!-- Generator: Adobe Illustrator 19.0.0, SVG Export Plug-In . SVG Version: 6.00 Build 0)  -->
<svg version="1.1" id="Layer_1" xmlns="http://www.w3.org/2000/svg" xmlns:xlink="http://www.w3.org/1999/xlink" x="0px" y="0px"
	 viewBox="-114 102.2 69.3 97.8" style="enable-background:new -114 102.2 69.3 97.8;" xml:space="preserve">
<style type="text/css">
	.st0{fill:#FFFFFF;}
</style>
<path class="st0" d="M-114,166.5c0.6,16.7,13,30.4,29,33v-33H-114z"/>
<path class="st0" d="M-57,138.8l-27.9,60.7c1.8,0.3,3.6,0.4,5.5,0.4c19.2,0,34.7-15.5,34.7-34.7l0,0
	C-44.7,154.6-49.5,145.2-57,138.8"/>
<path class="st0" d="M-44.7,135.6c-0.6-16.7-13-30.4-29-33v33H-44.7z"/>
<path class="st0" d="M-101.7,163.4l27.9-60.8c-1.8-0.2-3.6-0.4-5.5-0.4c-19.2,0-34.7,15.5-34.7,34.7l0,0l0,0
	C-114,147.5-109.2,157-101.7,163.4"/>
</svg>
